<svg width="31" height="31" viewBox="0 0 31 31" fill="none" xmlns="http://www.w3.org/2000/svg">
<g id="box 1" clip-path="url(#clip0_429_453)">
<g id="Group">
<g id="Group_2">
<path id="Vector" d="M29.7727 6.84007L15.6975 0.0451377C15.5727 -0.0150459 15.4274 -0.0150459 15.3026 0.0451377L1.22736 6.84007C1.07042 6.91582 0.970703 7.07475 0.970703 7.24901V23.751C0.970703 23.9252 1.07042 24.0842 1.22736 24.1599L15.3026 30.9549C15.3649 30.985 15.4325 31 15.5 31C15.5675 31 15.635 30.985 15.6975 30.9549L29.7727 24.1599C29.9296 24.0842 30.0293 23.9252 30.0293 23.751V7.24907C30.0293 7.07469 29.9295 6.91588 29.7727 6.84007ZM15.5 0.958366L28.5307 7.24901L24.7534 9.07256C24.7295 9.05433 24.7042 9.0375 24.6765 9.02412L11.7343 2.77629L15.5 0.958366ZM10.7088 3.28972L23.7205 9.57122L21.0556 10.8578L8.04918 4.57883L10.7088 3.28972ZM24.025 10.4327V15.1884L21.5357 16.3901V11.6344L24.025 10.4327ZM29.1211 23.4661L15.9541 29.8224V14.3289L19.0949 12.8127C19.3207 12.7037 19.4154 12.4322 19.3064 12.2063C19.1973 11.9806 18.9259 11.8857 18.7 11.9949L15.5 13.5397L14.2409 12.9318C14.015 12.8226 13.7436 12.9175 13.6345 13.1433C13.5255 13.3691 13.6202 13.6406 13.846 13.7497L15.0459 14.3289V29.8224L1.87891 23.4659V7.97248L11.9055 12.8129C11.9691 12.8437 12.0364 12.8582 12.1025 12.8582C12.2714 12.8582 12.4335 12.7636 12.5118 12.6014C12.6208 12.3756 12.5261 12.1041 12.3003 11.995L2.4693 7.24901L6.98034 5.07126L20.6212 11.6565C20.6232 11.6593 20.6254 11.6618 20.6275 11.6645V17.1137C20.6275 17.2699 20.7078 17.4152 20.8402 17.4983C20.9137 17.5445 20.9976 17.5678 21.0816 17.5678C21.149 17.5678 21.2165 17.5528 21.279 17.5226L24.6765 15.8824C24.8334 15.8067 24.9332 15.6478 24.9332 15.4735V9.99432L29.1211 7.97254V23.4661Z" fill="white"/>
</g>
</g>
<g id="Group_3">
<g id="Group_4">
<path id="Vector_2" d="M5.62639 21.7065L3.56083 20.7094C3.33487 20.6002 3.0635 20.695 2.95445 20.9209C2.84541 21.1467 2.9401 21.4182 3.16594 21.5273L5.2315 22.5244C5.29513 22.5552 5.3624 22.5697 5.42858 22.5697C5.59738 22.5697 5.75953 22.4751 5.83782 22.3129C5.94692 22.087 5.85223 21.8156 5.62639 21.7065Z" fill="white"/>
</g>
</g>
<g id="Group_5">
<g id="Group_6">
<path id="Vector_3" d="M7.52742 20.4666L3.56372 18.5531C3.33782 18.444 3.06639 18.5387 2.95734 18.7646C2.84836 18.9905 2.94306 19.262 3.1689 19.371L7.1326 21.2845C7.19623 21.3152 7.2635 21.3298 7.32968 21.3298C7.49848 21.3298 7.66063 21.2353 7.73891 21.073C7.84796 20.8471 7.75326 20.5756 7.52742 20.4666Z" fill="white"/>
</g>
</g>
</g>
<defs>
<clipPath id="clip0_429_453">
<rect width="31" height="31" fill="white"/>
</clipPath>
</defs>
</svg>
