<svg width="70" height="70" viewBox="0 0 70 70" fill="none" xmlns="http://www.w3.org/2000/svg">
<g clip-path="url(#clip0_429_936)">
<path d="M24.5332 9.66211H38.5037" stroke="#DFDFDF" stroke-width="2.025" stroke-miterlimit="10" stroke-linecap="round" stroke-linejoin="round"/>
<path d="M24.5332 14.373H38.5037" stroke="#DFDFDF" stroke-width="2.025" stroke-miterlimit="10" stroke-linecap="round" stroke-linejoin="round"/>
<path d="M9.53125 47.2938L11.7782 49.425L14.8596 45.5176" stroke="#DFDFDF" stroke-width="2.025" stroke-miterlimit="10" stroke-linecap="round" stroke-linejoin="round"/>
<path d="M20.9204 47.4727H38.5038" stroke="#DFDFDF" stroke-width="2.025" stroke-miterlimit="10" stroke-linecap="round" stroke-linejoin="round"/>
<path d="M9.53125 56.2077L11.7782 58.3391L14.8596 54.4316" stroke="#DFDFDF" stroke-width="2.025" stroke-miterlimit="10" stroke-linecap="round" stroke-linejoin="round"/>
<path d="M20.9204 56.3867H38.5038" stroke="#DFDFDF" stroke-width="2.025" stroke-miterlimit="10" stroke-linecap="round" stroke-linejoin="round"/>
<path d="M9.53125 25.4277H38.5039" stroke="#DFDFDF" stroke-width="2.025" stroke-miterlimit="10" stroke-linecap="round" stroke-linejoin="round"/>
<path d="M9.53125 31.4688H38.5039" stroke="#DFDFDF" stroke-width="2.025" stroke-miterlimit="10" stroke-linecap="round" stroke-linejoin="round"/>
<path d="M9.53125 37.5117H38.5039" stroke="#DFDFDF" stroke-width="2.025" stroke-miterlimit="10" stroke-linecap="round" stroke-linejoin="round"/>
<path d="M56.5076 20.9209L58.1978 22.5496C58.5318 22.8715 58.9953 23.022 59.4547 22.958L61.7795 22.6337C62.5843 22.5216 63.3335 23.0659 63.4755 23.8659L63.8857 26.1771C63.9667 26.6338 64.2531 27.028 64.6624 27.2462L66.7339 28.3503C67.4509 28.7325 67.7371 29.6134 67.3816 30.344L66.3548 32.4549C66.1519 32.872 66.1519 33.3592 66.3548 33.7764L67.3816 35.8872C67.7371 36.6179 67.4507 37.4987 66.7339 37.8809L64.6624 38.9851C64.2531 39.2032 63.9668 39.5974 63.8857 40.0541L63.4755 42.3653C63.3336 43.1654 62.5843 43.7098 61.7795 43.5975L59.4547 43.2732C58.9953 43.2091 58.532 43.3598 58.1978 43.6816L56.5076 45.3104C55.9225 45.8741 54.9963 45.8741 54.4114 45.3104L52.7212 43.6816C52.3872 43.3598 51.9237 43.2092 51.4643 43.2732L49.1395 43.5975C48.3347 43.7097 47.5855 43.1654 47.4435 42.3653L47.0333 40.0541C46.9523 39.5974 46.6659 39.2032 46.2565 38.9851L44.1851 37.8809C43.4681 37.4987 43.1819 36.6179 43.5372 35.8872L44.5641 33.7764C44.767 33.3592 44.767 32.872 44.5641 32.4549L43.5372 30.344C43.1818 29.6134 43.4681 28.7325 44.1851 28.3503L46.2565 27.2462C46.6659 27.028 46.9522 26.6338 47.0333 26.1771L47.4435 23.8659C47.5853 23.0659 48.3347 22.5214 49.1395 22.6337L51.4643 22.958C51.9237 23.0221 52.387 22.8715 52.7212 22.5496L54.4114 20.9209C54.9963 20.3571 55.9225 20.3571 56.5076 20.9209Z" stroke="#DFDFDF" stroke-width="2.025" stroke-miterlimit="10" stroke-linecap="round" stroke-linejoin="round"/>
<path d="M44.9136 1.19922V9.53574C44.9136 10.6541 45.8202 11.5607 46.9386 11.5607H55.2751" stroke="#DFDFDF" stroke-width="2.025" stroke-miterlimit="10" stroke-linejoin="round"/>
<path d="M13.0658 17.1467C10.9629 15.9326 9.66748 13.6888 9.66748 11.2607V9.6053C9.66748 9.4703 9.73944 9.34569 9.85635 9.27819L14.4994 6.5975C14.6163 6.53 14.7602 6.53 14.8771 6.5975L19.52 9.27819C19.637 9.34569 19.7089 9.4703 19.7089 9.6053V11.2607C19.7089 13.6888 18.4135 15.9326 16.3107 17.1467L14.8771 17.9744C14.7602 18.0419 14.6163 18.0419 14.4994 17.9744L13.0658 17.1467Z" stroke="#DFDFDF" stroke-width="2.025" stroke-miterlimit="10" stroke-linejoin="round"/>
<path d="M14.6885 18.0248V6.54688" stroke="#DFDFDF" stroke-width="2.025" stroke-miterlimit="10" stroke-linejoin="round"/>
<path d="M55.4591 20.4966V12.3984C55.4591 11.8613 55.2458 11.3462 54.866 10.9664L45.5063 1.60673C45.1266 1.22697 44.6116 1.01367 44.0745 1.01367H3.61191C2.49357 1.01367 1.58691 1.92033 1.58691 3.03867V10.2618" stroke="#DFDFDF" stroke-width="2.025" stroke-miterlimit="10" stroke-linecap="round" stroke-linejoin="round"/>
<path d="M1.58691 14.9863V66.0832C1.58691 67.2015 2.49357 68.1082 3.61191 68.1082H53.4341C54.5524 68.1082 55.4591 67.2015 55.4591 66.0832V57.9575" stroke="#DFDFDF" stroke-width="2.025" stroke-miterlimit="10" stroke-linecap="round" stroke-linejoin="round"/>
<path d="M49.7149 31.24C49.5224 31.8303 49.417 32.4598 49.417 33.1145C49.417 36.4515 52.1221 39.1567 55.4592 39.1567C58.7963 39.1567 61.5014 36.4515 61.5014 33.1145C61.5014 29.7774 58.7963 27.0723 55.4592 27.0723C54.5169 27.0723 53.6249 27.2881 52.8301 27.673" stroke="#DFDFDF" stroke-width="2.025" stroke-miterlimit="10" stroke-linecap="round" stroke-linejoin="round"/>
<path d="M49.3413 52.0103V59.758C49.3413 60.7459 50.4629 61.316 51.261 60.7337L54.7472 58.1903C55.1714 57.8809 55.7468 57.8809 56.171 58.1903L59.6572 60.7337C60.4553 61.316 61.5769 60.7459 61.5769 59.758V43.5684" stroke="#DFDFDF" stroke-width="2.025" stroke-miterlimit="10" stroke-linecap="round" stroke-linejoin="round"/>
<path d="M49.3413 43.5684V47.2853" stroke="#DFDFDF" stroke-width="2.025" stroke-miterlimit="10" stroke-linecap="round" stroke-linejoin="round"/>
</g>
<defs>
<clipPath id="clip0_429_936">
<rect width="69.12" height="69.12" fill="white"/>
</clipPath>
</defs>
</svg>
