<svg width="31" height="31" viewBox="0 0 31 31" fill="none" xmlns="http://www.w3.org/2000/svg">
<g id="quality 1" clip-path="url(#clip0_429_440)">
<g id="g3093">
<g id="g3095">
<g id="Clip path group">
<mask id="mask0_429_440" style="mask-type:luminance" maskUnits="userSpaceOnUse" x="0" y="0" width="31" height="31">
<g id="clipPath3101">
<path id="path3099" d="M0.000488281 0.203205H30.0805V30.2832H0.000488281V0.203205Z" fill="white"/>
</g>
</mask>
<g mask="url(#mask0_429_440)">
<g id="g3097">
<g id="g3103">
<path id="path3105" d="M23.853 15.2441C23.853 20.1112 19.9076 24.0566 15.0405 24.0566C10.1735 24.0566 6.22803 20.1112 6.22803 15.2441C6.22803 10.3771 10.1735 6.43164 15.0405 6.43164C19.9076 6.43164 23.853 10.3771 23.853 15.2441Z" stroke="white" stroke-width="1.28" stroke-miterlimit="10" stroke-linecap="round" stroke-linejoin="round"/>
</g>
<g id="g3107">
<path id="path3109" d="M19.4468 12.6012L14.1593 17.8887L10.6343 14.3637" stroke="white" stroke-width="1.28" stroke-miterlimit="10" stroke-linecap="round" stroke-linejoin="round"/>
</g>
<g id="g3111">
<path id="path3113" d="M13.8972 1.50564C14.5559 0.944579 15.5243 0.944579 16.183 1.50564L18.4733 3.52693L22.3489 3.22702C23.2116 3.16028 23.9952 3.72951 24.1982 4.57057L24.9753 7.78866L28.3615 9.81565C29.0987 10.2687 29.3979 11.1898 29.0679 11.9896L27.7301 15.2312L29.0679 18.4729C29.3979 19.2727 29.0987 20.1938 28.3615 20.6469L24.9753 22.6739L24.1982 25.8919C23.9952 26.733 23.2116 27.3022 22.3489 27.2355L18.5112 26.9385L16.183 28.9815C15.5243 29.5426 14.5559 29.5426 13.8972 28.9815L11.569 26.9385L7.73124 27.2355C6.86856 27.3022 6.08501 26.733 5.88197 25.8919L5.10183 22.6611L1.72124 20.6469C0.984042 20.1938 0.68477 19.2727 1.01489 18.4729L2.35262 15.2312L1.01489 11.9896C0.68477 11.1898 0.984042 10.2687 1.72124 9.81565L4.81207 7.97942L5.88197 4.57057C6.08501 3.72951 6.86856 3.16028 7.73124 3.22702L11.607 3.52693L13.8972 1.50564Z" stroke="white" stroke-width="1.28" stroke-miterlimit="10" stroke-linecap="round" stroke-linejoin="round"/>
</g>
</g>
</g>
</g>
</g>
</g>
</g>
<defs>
<clipPath id="clip0_429_440">
<rect width="30.08" height="30.08" fill="white" transform="translate(0 0.199219)"/>
</clipPath>
</defs>
</svg>
