<svg width="19" height="19" viewBox="0 0 19 19" fill="none" xmlns="http://www.w3.org/2000/svg">
<path d="M5.9899 5.40453H8.3299M5.9899 9.49953H13.0099M5.9899 11.8395H13.0099M5.9899 14.1795H8.3299M4.8199 17.1045H14.1799C14.4902 17.1045 14.7878 16.9813 15.0072 16.7618C15.2266 16.5424 15.3499 16.2448 15.3499 15.9345V3.06453C15.3499 2.75423 15.2266 2.45663 15.0072 2.23722C14.7878 2.0178 14.4902 1.89453 14.1799 1.89453H4.8199C4.5096 1.89453 4.212 2.0178 3.99259 2.23722C3.77317 2.45663 3.6499 2.75423 3.6499 3.06453V15.9345C3.6499 16.2448 3.77317 16.5424 3.99259 16.7618C4.212 16.9813 4.5096 17.1045 4.8199 17.1045Z" stroke="#202121" stroke-width="1.08" stroke-linecap="round" stroke-linejoin="round"/>
<path d="M13.0103 5.69633C13.1718 5.69633 13.3028 5.56537 13.3028 5.40383C13.3028 5.24228 13.1718 5.11133 13.0103 5.11133C12.8487 5.11133 12.7178 5.24228 12.7178 5.40383C12.7178 5.56537 12.8487 5.69633 13.0103 5.69633Z" fill="white" stroke="white" stroke-width="0.72"/>
</svg>
