<svg width="433" height="256" viewBox="0 0 433 256" fill="none" xmlns="http://www.w3.org/2000/svg">
<g clip-path="url(#clip0_429_545)">
<path d="M192.47 176.871H195.21V196.801H192.26V181.301L185.96 189.001H185.42L179.04 181.301V196.801H176.11V176.871H178.89L185.7 185.051L192.47 176.871Z" fill="black"/>
<path d="M210.64 176.582C213.81 176.582 216.45 177.552 218.55 179.502C220.66 181.452 221.71 183.892 221.71 186.832C221.71 189.772 220.65 192.202 218.52 194.132C216.39 196.062 213.71 197.022 210.47 197.022C207.38 197.022 204.81 196.062 202.75 194.132C200.69 192.202 199.66 189.792 199.66 186.892C199.66 183.912 200.7 181.452 202.77 179.502C204.86 177.562 207.48 176.582 210.64 176.582ZM210.76 179.292C208.41 179.292 206.49 180.002 204.98 181.432C203.47 182.862 202.71 184.682 202.71 186.892C202.71 189.042 203.47 190.832 204.98 192.252C206.5 193.682 208.39 194.392 210.67 194.392C212.96 194.392 214.87 193.662 216.4 192.212C217.93 190.762 218.7 188.942 218.7 186.782C218.7 184.672 217.93 182.892 216.4 181.452C214.87 180.012 212.99 179.292 210.76 179.292Z" fill="black"/>
<path d="M241.62 176.871H244.41V196.801H241.89L228.18 181.451V196.801H225.42V176.871H227.8L241.63 192.351V176.871H241.62Z" fill="black"/>
<path d="M248.01 176.842H265.14V179.382H257.99V196.802H255.04V179.382H248.01V176.842Z" fill="black"/>
<path d="M272.4 176.752H274.46L283.65 196.792H280.65L277.92 190.882H269.17L266.61 196.792H263.59L272.4 176.752ZM276.72 188.352L273.41 181.132L270.34 188.352H276.72Z" fill="black"/>
<path d="M303.33 192.171V195.311C301.18 196.451 298.69 197.021 295.87 197.021C293.58 197.021 291.64 196.571 290.04 195.681C288.44 194.791 287.18 193.561 286.25 191.991C285.32 190.421 284.86 188.721 284.86 186.901C284.86 184.001 285.92 181.561 288.05 179.581C290.18 177.601 292.8 176.611 295.92 176.611C298.07 176.611 300.46 177.161 303.1 178.251V181.321C300.7 179.991 298.36 179.321 296.07 179.321C293.72 179.321 291.77 180.041 290.22 181.481C288.67 182.921 287.89 184.731 287.89 186.891C287.89 189.081 288.65 190.871 290.18 192.281C291.71 193.691 293.66 194.391 296.04 194.391C298.53 194.401 300.96 193.661 303.33 192.171Z" fill="black"/>
<path d="M315.19 176.752H317.25L326.44 196.792H323.44L320.71 190.882H311.96L309.4 196.792H306.38L315.19 176.752ZM319.5 188.352L316.19 181.132L313.12 188.352H319.5Z" fill="black"/>
<path d="M329.73 196.801V176.871H334.87C336.94 176.871 338.59 177.371 339.81 178.371C341.03 179.371 341.64 180.721 341.64 182.421C341.64 183.581 341.34 184.581 340.74 185.431C340.14 186.281 339.29 186.911 338.17 187.331C338.83 187.751 339.47 188.321 340.09 189.041C340.72 189.761 341.6 191.021 342.73 192.821C343.44 193.951 344.02 194.801 344.45 195.371L345.54 196.801H342.05L341.16 195.491C341.13 195.441 341.07 195.361 340.99 195.251L340.42 194.461L339.51 193.001L338.53 191.441C337.92 190.621 337.37 189.971 336.86 189.491C336.36 189.011 335.9 188.661 335.49 188.441C335.08 188.231 334.4 188.121 333.44 188.121H332.68V196.791H329.73V196.801ZM333.55 179.291H332.67V185.581H333.78C335.27 185.581 336.29 185.461 336.84 185.211C337.39 184.961 337.82 184.591 338.13 184.091C338.44 183.591 338.59 183.021 338.59 182.391C338.59 181.761 338.42 181.191 338.08 180.691C337.74 180.181 337.26 179.821 336.63 179.611C336.02 179.401 334.99 179.291 333.55 179.291Z" fill="black"/>
<path d="M358.88 186.982H365.76V195.422C363.24 196.482 360.73 197.022 358.25 197.022C354.86 197.022 352.14 196.062 350.11 194.132C348.08 192.202 347.06 189.832 347.06 187.002C347.06 184.022 348.11 181.552 350.22 179.572C352.32 177.592 354.96 176.602 358.13 176.602C359.28 176.602 360.38 176.722 361.42 176.962C362.46 177.202 363.77 177.652 365.35 178.292V181.202C362.9 179.822 360.48 179.132 358.07 179.132C355.83 179.132 353.94 179.872 352.4 181.352C350.86 182.832 350.1 184.652 350.1 186.812C350.1 189.072 350.87 190.922 352.4 192.362C353.94 193.802 355.91 194.512 358.33 194.512C359.5 194.512 360.91 194.252 362.54 193.722L362.82 193.632V189.482H358.87V186.982H358.88Z" fill="black"/>
<path d="M377.55 176.752H379.61L388.8 196.792H385.8L383.07 190.882H374.32L371.76 196.792H368.74L377.55 176.752ZM381.87 188.352L378.56 181.132L375.49 188.352H381.87Z" fill="black"/>
<path d="M396.13 188.451L393.9 187.131C392.5 186.301 391.5 185.481 390.91 184.681C390.32 183.881 390.02 182.951 390.02 181.911C390.02 180.341 390.58 179.071 391.7 178.091C392.82 177.111 394.28 176.621 396.07 176.621C397.78 176.621 399.35 177.091 400.78 178.021V181.261C399.3 179.881 397.71 179.191 396.01 179.191C395.05 179.191 394.26 179.411 393.65 179.841C393.03 180.271 392.73 180.821 392.73 181.491C392.73 182.091 392.96 182.651 393.41 183.171C393.86 183.691 394.59 184.241 395.6 184.811L397.84 186.101C400.34 187.551 401.59 189.401 401.59 191.641C401.59 193.241 401.04 194.541 399.94 195.531C398.84 196.531 397.41 197.031 395.65 197.031C393.62 197.031 391.78 196.421 390.12 195.211V191.591C391.7 193.541 393.54 194.521 395.62 194.521C396.54 194.521 397.3 194.271 397.92 193.771C398.53 193.271 398.84 192.651 398.84 191.901C398.83 190.691 397.93 189.531 396.13 188.451Z" fill="black"/>
<path d="M428.2 176.531H431.76L424.19 185.921V196.461H421.18V185.921L413.61 176.531H417.15L422.64 183.401L428.2 176.531Z" fill="black"/>
<path d="M189.43 223.521H197.2V233.051C194.35 234.251 191.53 234.851 188.72 234.851C184.89 234.851 181.83 233.761 179.54 231.591C177.25 229.421 176.1 226.741 176.1 223.551C176.1 220.191 177.29 217.401 179.66 215.161C182.03 212.931 185.01 211.811 188.59 211.811C189.89 211.811 191.13 211.951 192.3 212.221C193.47 212.491 194.95 213.001 196.74 213.731V217.011C193.98 215.451 191.24 214.681 188.52 214.681C185.99 214.681 183.86 215.521 182.13 217.191C180.4 218.861 179.53 220.921 179.53 223.361C179.53 225.911 180.4 228.001 182.13 229.621C183.86 231.241 186.09 232.051 188.82 232.051C190.14 232.051 191.73 231.751 193.57 231.161L193.89 231.061V226.381H189.43V223.521Z" fill="black"/>
<path d="M202.13 234.592V212.102H207.93C210.27 212.102 212.13 212.662 213.5 213.792C214.88 214.922 215.56 216.442 215.56 218.362C215.56 219.672 215.22 220.802 214.55 221.762C213.88 222.722 212.91 223.432 211.65 223.902C212.39 224.372 213.11 225.022 213.82 225.832C214.53 226.652 215.52 228.072 216.8 230.102C217.61 231.382 218.25 232.342 218.74 232.982L219.97 234.592H216.03L215.02 233.112C214.99 233.062 214.92 232.972 214.82 232.842L214.17 231.952L213.14 230.312L212.03 228.552C211.35 227.632 210.72 226.892 210.15 226.352C209.58 225.802 209.07 225.412 208.61 225.172C208.15 224.932 207.38 224.812 206.3 224.812H205.44V234.602H202.13V234.592ZM206.44 214.842H205.45V221.942H206.71C208.39 221.942 209.54 221.802 210.16 221.522C210.78 221.242 211.27 220.822 211.62 220.262C211.97 219.702 212.14 219.062 212.14 218.342C212.14 217.632 211.95 216.992 211.56 216.422C211.17 215.852 210.63 215.442 209.93 215.202C209.22 214.962 208.06 214.842 206.44 214.842Z" fill="black"/>
<path d="M238.62 212.111H241.95V224.871C241.95 226.601 241.82 227.901 241.56 228.781C241.3 229.661 240.98 230.391 240.6 230.981C240.22 231.561 239.75 232.091 239.2 232.551C237.37 234.091 234.97 234.851 232.01 234.851C228.99 234.851 226.58 234.091 224.75 232.561C224.2 232.091 223.73 231.561 223.35 230.981C222.97 230.401 222.65 229.681 222.41 228.831C222.16 227.981 222.04 226.651 222.04 224.841V212.111H225.37V224.871C225.37 226.981 225.62 228.451 226.12 229.281C226.62 230.111 227.37 230.771 228.39 231.271C229.41 231.771 230.6 232.021 231.99 232.021C233.96 232.021 235.56 231.521 236.79 230.521C237.44 229.981 237.91 229.351 238.2 228.621C238.49 227.891 238.63 226.641 238.63 224.871V212.111H238.62ZM235.92 205.621L232.18 210.451H230.32L232.56 205.621H235.92Z" fill="black"/>
<path d="M253.92 211.98H256.25L266.63 234.6H263.24L260.16 227.94H250.29L247.4 234.6H244L253.92 211.98ZM258.79 225.06L255.06 216.92L251.6 225.06H258.79Z" fill="black"/>
<path d="M274.89 225.171L272.37 223.681C270.79 222.741 269.67 221.821 269 220.911C268.33 220.001 268 218.961 268 217.781C268 216.011 268.63 214.571 269.9 213.471C271.17 212.371 272.81 211.811 274.83 211.811C276.76 211.811 278.54 212.341 280.15 213.391V217.041C278.48 215.481 276.69 214.701 274.77 214.701C273.69 214.701 272.8 214.941 272.1 215.431C271.4 215.921 271.06 216.541 271.06 217.301C271.06 217.971 271.32 218.601 271.83 219.191C272.34 219.781 273.17 220.391 274.3 221.041L276.83 222.501C279.65 224.141 281.06 226.221 281.06 228.761C281.06 230.561 280.44 232.031 279.2 233.151C277.96 234.281 276.34 234.841 274.36 234.841C272.07 234.841 269.99 234.161 268.12 232.791V228.701C269.91 230.901 271.98 232.001 274.33 232.001C275.37 232.001 276.23 231.721 276.92 231.161C277.61 230.601 277.95 229.901 277.95 229.051C277.94 227.701 276.92 226.401 274.89 225.171Z" fill="black"/>
<path d="M299.85 225.171L297.33 223.681C295.75 222.741 294.63 221.821 293.96 220.911C293.29 220.001 292.96 218.961 292.96 217.781C292.96 216.011 293.59 214.571 294.86 213.471C296.13 212.371 297.77 211.811 299.79 211.811C301.72 211.811 303.5 212.341 305.11 213.391V217.041C303.44 215.481 301.65 214.701 299.73 214.701C298.65 214.701 297.76 214.941 297.06 215.431C296.36 215.921 296.02 216.541 296.02 217.301C296.02 217.971 296.28 218.601 296.79 219.191C297.3 219.781 298.13 220.391 299.26 221.041L301.79 222.501C304.61 224.141 306.02 226.221 306.02 228.761C306.02 230.561 305.4 232.031 304.16 233.151C302.92 234.281 301.3 234.841 299.32 234.841C297.03 234.841 294.95 234.161 293.08 232.791V228.701C294.87 230.901 296.94 232.001 299.29 232.001C300.33 232.001 301.19 231.721 301.88 231.161C302.57 230.601 302.91 229.901 302.91 229.051C302.9 227.701 301.88 226.401 299.85 225.171Z" fill="black"/>
<path d="M317.04 211.98H319.37L329.75 234.6H326.36L323.28 227.94H313.41L310.52 234.6H307.12L317.04 211.98ZM321.91 225.06L318.18 216.92L314.72 225.06H321.91Z" fill="black"/>
<path d="M332.28 212.111H335.59V231.671H346.01V234.601H332.28V212.111Z" fill="black"/>
<path d="M368.85 229.381V232.921C366.42 234.211 363.62 234.851 360.44 234.851C357.86 234.851 355.66 234.351 353.86 233.341C352.06 232.331 350.64 230.941 349.59 229.171C348.54 227.401 348.02 225.481 348.02 223.421C348.02 220.151 349.22 217.391 351.62 215.161C354.02 212.931 356.98 211.811 360.51 211.811C362.94 211.811 365.64 212.431 368.61 213.661V217.121C365.9 215.621 363.26 214.871 360.68 214.871C358.03 214.871 355.83 215.681 354.08 217.311C352.33 218.941 351.46 220.971 351.46 223.421C351.46 225.891 352.32 227.921 354.04 229.501C355.76 231.091 357.97 231.881 360.65 231.881C363.44 231.891 366.18 231.051 368.85 229.381Z" fill="black"/>
<path d="M372.96 212.111H376.27V234.601H372.96V212.111Z" fill="black"/>
<path d="M381.44 234.561V212.111H389.24C392.39 212.111 394.88 212.571 396.71 213.491C398.54 214.411 400 215.761 401.08 217.541C402.16 219.321 402.7 221.261 402.7 223.371C402.7 224.871 402.4 226.311 401.81 227.681C401.21 229.051 400.36 230.261 399.26 231.301C398.13 232.371 396.83 233.181 395.34 233.731C394.47 234.061 393.67 234.291 392.94 234.401C392.21 234.511 390.82 234.571 388.77 234.571H381.44V234.561ZM388.89 214.971H384.75V231.691H388.99C390.65 231.691 391.93 231.581 392.85 231.361C393.77 231.141 394.53 230.861 395.14 230.521C395.75 230.181 396.31 229.771 396.82 229.271C398.45 227.661 399.27 225.631 399.27 223.171C399.27 220.761 398.43 218.791 396.75 217.261C396.13 216.691 395.42 216.221 394.62 215.861C393.82 215.491 393.06 215.251 392.34 215.141C391.63 215.031 390.48 214.971 388.89 214.971Z" fill="black"/>
<path d="M418.2 211.781C421.77 211.781 424.75 212.881 427.13 215.081C429.51 217.281 430.7 220.041 430.7 223.351C430.7 226.671 429.5 229.411 427.1 231.581C424.7 233.751 421.67 234.841 418.02 234.841C414.53 234.841 411.63 233.751 409.31 231.581C406.99 229.411 405.83 226.681 405.83 223.411C405.83 220.051 407 217.271 409.34 215.071C411.67 212.891 414.62 211.781 418.2 211.781ZM418.33 214.841C415.68 214.841 413.51 215.641 411.8 217.251C410.09 218.861 409.24 220.911 409.24 223.421C409.24 225.841 410.09 227.861 411.8 229.471C413.51 231.081 415.65 231.881 418.22 231.881C420.8 231.881 422.95 231.061 424.68 229.421C426.41 227.781 427.27 225.731 427.27 223.291C427.27 220.911 426.41 218.901 424.68 217.281C422.97 215.661 420.85 214.841 418.33 214.841Z" fill="black"/>
<path d="M165.82 78.3613H156.95V250.551H165.82V78.3613Z" fill="black"/>
<path d="M273.53 245.061L284.43 255.181H156.71L156.75 245.061H273.53Z" fill="black"/>
<path d="M130.06 202.571C134.97 200.371 140.56 200.241 145.56 202.231L146.43 202.571L110.19 98.7611C109.28 96.1411 108.67 93.4311 108.11 90.7211C107.65 88.4711 106.69 86.4011 105.37 84.6211L105.3 84.4311L105.24 84.4511C102.41 80.7611 97.9799 78.3711 92.9699 78.3711H44.9799C36.8199 78.3711 30.1999 84.9911 30.1899 93.1511L30.1499 166.091H45.6099V93.8211H92.1399L130.06 202.571Z" fill="black"/>
<path d="M4.47021 205.46V186.84C4.47021 178.27 11.4202 171.32 19.9902 171.32H47.1202C52.7702 171.32 57.9702 174.39 60.7002 179.33L80.4402 215.02H114.48C114.48 215.02 105.58 219.63 109.36 235.3H56.3102C56.3102 235.3 61.5002 211.79 35.4702 201.87C35.4702 201.86 19.1402 194.8 4.47021 205.46Z" fill="black"/>
<path d="M24.3101 209.25C12.1801 209.25 2.3501 219.08 2.3501 231.21C2.3501 243.34 12.1801 253.17 24.3101 253.17C36.4401 253.17 46.2701 243.34 46.2701 231.21C46.2701 219.08 36.4301 209.25 24.3101 209.25ZM24.3101 243.98C17.2601 243.98 11.5401 238.26 11.5401 231.21C11.5401 224.16 17.2601 218.44 24.3101 218.44C31.3601 218.44 37.0801 224.16 37.0801 231.21C37.0801 238.27 31.3601 243.98 24.3101 243.98Z" fill="black"/>
<path d="M24.06 207.061C10.77 207.061 0 217.831 0 231.121C0 244.411 10.77 255.181 24.06 255.181C37.35 255.181 48.12 244.411 48.12 231.121C48.12 217.831 37.35 207.061 24.06 207.061ZM24.06 250.441C13.39 250.441 4.74 241.791 4.74 231.121C4.74 220.451 13.39 211.801 24.06 211.801C34.73 211.801 43.38 220.451 43.38 231.121C43.38 241.791 34.73 250.441 24.06 250.441Z" fill="black"/>
<path d="M138.98 209.25C126.85 209.25 117.02 219.08 117.02 231.21C117.02 243.34 126.85 253.17 138.98 253.17C151.11 253.17 160.94 243.34 160.94 231.21C160.94 219.08 151.11 209.25 138.98 209.25ZM138.98 243.98C131.93 243.98 126.21 238.26 126.21 231.21C126.21 224.16 131.93 218.44 138.98 218.44C146.03 218.44 151.75 224.16 151.75 231.21C151.75 238.27 146.04 243.98 138.98 243.98Z" fill="black"/>
<path d="M138.74 207.061C125.45 207.061 114.68 217.831 114.68 231.121C114.68 244.411 125.45 255.181 138.74 255.181C152.03 255.181 162.8 244.411 162.8 231.121C162.8 217.831 152.03 207.061 138.74 207.061ZM138.74 250.441C128.07 250.441 119.42 241.791 119.42 231.121C119.42 220.451 128.07 211.801 138.74 211.801C149.41 211.801 158.06 220.451 158.06 231.121C158.06 241.791 149.41 250.441 138.74 250.441Z" fill="black"/>
<path d="M280.39 167.562V131.892L261.84 78.2617H277.94L288.88 111.642H289.13L298.88 78.2617H314.92L297.25 131.892V167.562H280.39Z" fill="black"/>
<path d="M347.91 168.25C341.26 168.17 335.87 166 331.73 161.76C327.59 157.52 325.43 150.68 325.24 141.26L324.48 102.93C324.4 98.9903 324.8 95.4703 325.68 92.3703C326.56 89.2803 327.97 86.6603 329.91 84.5303C331.85 82.4003 334.4 80.8003 337.56 79.7203C340.71 78.6403 344.53 78.1303 349 78.1903C353.85 78.2503 357.81 78.8803 360.89 80.0703C363.96 81.2603 366.35 82.9603 368.05 85.1703C369.75 87.3803 370.94 90.0703 371.63 93.2603C372.32 96.4403 372.71 100.04 372.79 104.05L372.91 110.31L357.23 110.11L357.05 100.89C356.97 96.9203 356.4 94.0903 355.34 92.4003C354.28 90.7203 352.33 89.8603 349.49 89.8203C346.35 89.7803 344.2 90.7303 343.03 92.6703C341.86 94.6103 341.32 98.0703 341.42 103.04L342.18 141.27C342.29 146.82 342.88 150.79 343.95 153.19C345.02 155.59 347.19 156.81 350.45 156.85C353.63 156.89 355.85 155.69 357.12 153.25C358.39 150.81 358.96 146.72 358.85 140.97L358.61 129.09L350.14 128.98L349.95 119.21L373.09 119.5L374.05 167.65L366.52 167.55L363.78 158.85C362.92 161.88 361.01 164.21 358.06 165.84C355.09 167.5 351.71 168.3 347.91 168.25Z" fill="black"/>
<path d="M410.68 165.032C406.23 165.052 402.53 164.512 399.56 163.422C396.59 162.332 394.26 160.712 392.55 158.592C390.84 156.462 389.63 153.872 388.91 150.802C388.19 147.742 387.84 144.252 387.86 140.332L387.89 132.772L403.29 132.702L403.26 141.232C403.24 145.792 403.71 149.062 404.68 151.052C405.64 153.042 407.56 154.022 410.43 154.012C412.37 154.002 413.84 153.632 414.83 152.912C415.82 152.192 416.49 151.022 416.84 149.432C417.19 147.842 417.37 145.762 417.38 143.192C417.39 140.012 416.56 137.112 414.9 134.482C413.23 131.852 410.71 129.142 407.32 126.332L399.46 119.912C397.28 118.122 395.32 116.222 393.57 114.202C391.82 112.182 390.43 109.942 389.41 107.452C388.39 104.972 387.88 102.182 387.9 99.1018C387.92 94.6418 388.62 90.8618 390.01 87.7718C391.4 84.6818 393.73 82.3318 397.01 80.7318C400.29 79.1318 404.78 78.3118 410.48 78.2818C414.76 78.2618 418.29 78.7718 421.05 79.8018C423.81 80.8318 425.97 82.3518 427.52 84.3518C429.07 86.3518 430.16 88.7918 430.8 91.6618C431.44 94.5318 431.75 97.8118 431.73 101.512L431.71 106.762L416.73 106.832L416.75 100.762C416.76 98.1918 416.6 96.0618 416.26 94.3518C415.92 92.6518 415.29 91.3818 414.36 90.5318C413.43 89.6818 412.08 89.2618 410.3 89.2718C408.6 89.2818 407.23 89.5818 406.17 90.1818C405.12 90.7818 404.35 91.7018 403.89 92.9418C403.42 94.1818 403.18 95.7818 403.17 97.7418C403.16 99.5118 403.44 101.032 404 102.312C404.56 103.592 405.42 104.832 406.59 106.012C407.76 107.192 409.21 108.522 410.94 109.992L419.7 117.512C423.89 121.092 427.15 124.822 429.48 128.692C431.81 132.572 432.96 136.902 432.95 141.682C432.93 146.762 432.23 151.022 430.84 154.482C429.45 157.942 427.14 160.562 423.9 162.342C420.67 164.102 416.26 165.012 410.68 165.032Z" fill="black"/>
<path d="M227.18 78.2715L212.5 141.201L198.61 85.2315C197.6 81.1515 193.74 78.2715 189.3 78.2715H176.1V167.261H190.9V132.301L190.28 102.841L205.83 167.271H219.13L233.81 102.841L233.19 132.301V167.261H248.12V78.2715H227.18ZM186.92 92.0015C184.27 92.0015 182.12 89.9715 182.12 87.4715C182.12 84.9715 184.27 82.9415 186.92 82.9415C189.57 82.9415 191.72 84.9715 191.72 87.4715C191.72 89.9815 189.57 92.0015 186.92 92.0015Z" fill="black"/>
<path d="M346.96 0.651315C343.38 0.701315 340.51 3.65131 340.57 7.24131C340.62 10.8213 343.57 13.6913 347.16 13.6313C350.74 13.5813 353.61 10.6313 353.55 7.04131C353.49 3.46131 350.54 0.591315 346.96 0.651315ZM347.11 10.9113C345.03 10.9413 343.31 9.28131 343.28 7.19131C343.25 5.11131 344.91 3.39131 347 3.36131C349.08 3.33131 350.8 4.99131 350.83 7.08131C350.86 9.17131 349.19 10.8813 347.11 10.9113Z" fill="black"/>
<path d="M346.88 0.000845746C342.95 0.0608457 339.82 3.29085 339.87 7.22085C339.92 11.1508 343.16 14.2808 347.09 14.2308C351.02 14.1808 354.15 10.9408 354.1 7.01085C354.05 3.08085 350.8 -0.0591543 346.88 0.000845746ZM347.06 12.8208C343.91 12.8708 341.31 10.3508 341.27 7.19085C341.22 4.04085 343.74 1.44085 346.9 1.40085C350.05 1.35085 352.65 3.87085 352.69 7.03085C352.74 10.1808 350.22 12.7708 347.06 12.8208Z" fill="black"/>
<path d="M349.278 12.7982L344.849 12.8633L345.356 47.3698L349.785 47.3047L349.278 12.7982Z" fill="black"/>
<path d="M345.22 42.9005L345.29 47.3205C348.03 47.2805 350.29 49.4705 350.33 52.2105C350.37 54.8905 348.12 57.2105 345.44 57.2505C343.25 57.2805 341.37 55.8905 340.68 53.9305C340.36 53.0105 339.53 52.3705 338.55 52.3805C338.53 52.3805 338.51 52.3805 338.48 52.3805C337 52.4005 335.92 53.8405 336.4 55.2405C337.85 59.5505 342.34 62.4305 347.29 61.3905C350.92 60.6305 353.81 57.6605 354.47 54.0105C355.54 48.0305 350.96 42.8705 345.22 42.9005Z" fill="black"/>
<path d="M190.76 68.1308C194.57 68.1608 199.83 68.3408 202.93 70.8908C205.64 73.1108 206.86 75.6208 207.71 78.9008L338.89 14.6208L338.52 14.3208C336.9 12.9908 335.81 11.1608 335.73 9.05078L190.76 68.1308Z" fill="black"/>
</g>
<defs>
<clipPath id="clip0_429_545">
<rect width="432.96" height="255.18" fill="white"/>
</clipPath>
</defs>
</svg>
